<?xml version="1.0" encoding="iso-8859-1"?>
<!-- Generator: Adobe Illustrator 19.0.0, SVG Export Plug-In . SVG Version: 6.00 Build 0)  -->
<svg version="1.1" id="Layer_1" xmlns="http://www.w3.org/2000/svg" xmlns:xlink="http://www.w3.org/1999/xlink" x="0px" y="0px"
	 viewBox="0 0 512 512" style="enable-background:new 0 0 512 512;" xml:space="preserve">
<circle style="fill:#0055B8;" cx="256.004" cy="256.004" r="247.886"/>
<path style="fill:#0082CA;" d="M503.735,264.119c0.087-2.696,0.146-5.4,0.146-8.119c0-2.718-0.06-5.422-0.146-8.119H387.397
	c-1.187-45.002-12.142-83.838-27.46-116.854c1.194-0.411,2.391-0.813,3.582-1.239c27.244-9.76,52.899-23.136,76.501-39.859
	c-3.675-4.069-7.489-8.009-11.422-11.827c-21.836,15.203-45.485,27.42-70.554,36.399c-1.79,0.642-3.587,1.258-5.387,1.865
	c-26.684-50.493-62.562-85.954-84.747-107.871c-0.031-0.03-0.06-0.06-0.09-0.089c-3.917-0.184-7.855-0.288-11.818-0.288
	c-3.963,0-7.901,0.104-11.818,0.288c-0.031,0.029-0.06,0.058-0.091,0.089c-22.184,21.918-58.065,57.382-84.749,107.877
	c-2.018-0.68-4.03-1.38-6.036-2.103c-24.834-8.961-48.259-21.1-69.899-36.169c-3.935,3.818-7.749,7.76-11.425,11.83
	c23.398,16.578,48.817,29.872,75.814,39.612c1.418,0.512,2.844,0.997,4.268,1.488c-15.318,33.013-26.273,71.851-27.46,116.852H8.265
	c-0.087,2.696-0.146,5.4-0.146,8.119s0.06,5.422,0.146,8.119h116.339c1.187,45,12.142,83.838,27.46,116.852
	c-1.423,0.491-2.85,0.976-4.268,1.488c-26.997,9.74-52.416,23.033-75.814,39.612c3.676,4.07,7.49,8.011,11.425,11.83
	c21.641-15.069,45.065-27.208,69.899-36.169c2.006-0.723,4.018-1.423,6.036-2.103c26.685,50.495,62.565,85.959,84.749,107.877
	c0.031,0.03,0.06,0.06,0.091,0.089c3.917,0.184,7.855,0.288,11.818,0.288s7.901-0.104,11.818-0.288
	c0.031-0.029,0.06-0.058,0.09-0.089c22.183-21.918,58.062-57.38,84.747-107.871c1.8,0.607,3.597,1.223,5.387,1.865
	c25.069,8.979,48.719,21.196,70.554,36.399c3.934-3.817,7.747-7.758,11.422-11.827c-23.602-16.723-49.257-30.1-76.501-39.859
	c-1.191-0.427-2.388-0.828-3.582-1.239c15.318-33.015,26.273-71.852,27.46-116.854h116.34V264.119z M247.885,484.397
	c-18.64-18.628-43.338-44.72-64.279-78.889c-2.979-4.86-5.794-9.766-8.465-14.709c23.63-6.54,47.989-10.17,72.744-10.821V484.397z
	 M247.885,363.736c-27.323,0.682-54.196,4.793-80.213,12.285c-16.733-35.527-25.73-73.017-26.828-111.903h107.04v99.618H247.885z
	 M247.885,247.881h-107.04c1.098-38.886,10.094-76.376,26.828-111.903c26.017,7.492,52.891,11.603,80.213,12.285v99.618H247.885z
	 M247.885,132.022c-24.755-0.653-49.114-4.281-72.744-10.821c2.672-4.943,5.486-9.848,8.465-14.709
	c20.941-34.168,45.639-60.261,64.279-78.889L247.885,132.022L247.885,132.022z M264.122,27.611
	c18.639,18.627,43.332,44.719,64.272,78.882c2.979,4.86,5.794,9.765,8.465,14.709c-23.629,6.54-47.987,10.169-72.737,10.821V27.611z
	 M328.395,405.508c-20.939,34.163-45.633,60.255-64.272,78.882V379.978c24.75,0.654,49.108,4.281,72.737,10.821
	C334.189,395.743,331.372,400.647,328.395,405.508z M344.327,376.022c-26.015-7.491-52.887-11.604-80.205-12.286v-99.618h107.033
	C370.058,303.005,361.061,340.495,344.327,376.022z M264.122,247.881v-99.618c27.317-0.682,54.191-4.795,80.205-12.286
	c16.734,35.527,25.73,73.017,26.828,111.904H264.122z"/>
<path style="fill:#1E252B;" d="M256,512c-68.38,0-132.668-26.629-181.019-74.982C26.629,388.668,0,324.38,0,256
	S26.629,123.332,74.981,74.982C123.333,26.629,187.62,0,256,0s132.668,26.629,181.019,74.982C485.371,123.333,512,187.621,512,256
	s-26.629,132.668-74.981,181.019C388.668,485.372,324.381,512,256,512z M256,16.237c-64.042,0-124.252,24.94-169.538,70.225
	S16.237,191.957,16.237,256s24.94,124.253,70.224,169.538c45.286,45.285,105.495,70.225,169.539,70.225
	s124.253-24.94,169.539-70.225c45.285-45.285,70.224-105.494,70.224-169.538s-24.94-124.252-70.224-169.538
	C380.253,41.177,320.043,16.237,256,16.237z"/>
<g>
</g>
<g>
</g>
<g>
</g>
<g>
</g>
<g>
</g>
<g>
</g>
<g>
</g>
<g>
</g>
<g>
</g>
<g>
</g>
<g>
</g>
<g>
</g>
<g>
</g>
<g>
</g>
<g>
</g>
</svg>
